<?xml version="1.0" encoding="UTF-8"?>
<svg width="353px" height="341px" viewBox="0 0 353 341" version="1.1" xmlns="http://www.w3.org/2000/svg" xmlns:xlink="http://www.w3.org/1999/xlink">
    <!-- Generator: Sketch 45.2 (43514) - http://www.bohemiancoding.com/sketch -->
    <title>raven</title>
    <desc>Created with Sketch.</desc>
    <defs></defs>
    <g id="Where-is" stroke="none" stroke-width="1" fill="none" fill-rule="evenodd">
        <g id="raven" fill-rule="nonzero">
            <path d="M340.314,170.17 C340.314,264.14 264.134,340.32 170.164,340.32 C157.424,340.32 145.014,338.92 133.074,336.26 C56.934,319.34 0.004,251.4 0.004,170.17 C0.004,164.26 0.304,158.42 0.894,152.67 C9.654,66.91 82.094,0.01 170.164,0.01 C264.134,0.01 340.314,76.19 340.314,170.17 Z" id="Shape" fill="#04AC59"></path>
            <path d="M181.54,200.82 C173.13,244.29 174.7,275.34 177.49,293.73 C166.61,306.46 154.63,318.3 141.63,329.09 L133.07,336.19 C107.48,330.5 84.07,319.06 64.25,303.27 C25.1,272.11 0,224.03 0,170.1 C0,164.19 0.3,158.35 0.89,152.6 C11.11,148.78 21.64,145.45 31.7,142.6 C50.18,137.37 67.71,129.46 83.78,119.2 C95.9,111.47 107.18,102.41 117.39,92.16 C122.08,87.46 127.05,83.05 132.26,79 C132.26,79 196.03,125.99 181.54,200.82 Z" id="Shape" fill="#E6E2E2"></path>
            <path d="M283.534,116.403 C325.777,121.231 352.33,155.025 352.33,155.025 C352.33,155.025 291.379,133.904 247.326,133.3 L283.534,116.403 Z" id="Shape" fill="#776868"></path>
            <path d="M352.33,155.025 C334.853,160.915 305.452,159.358 282.195,156.691 C276.281,156.015 270.476,156.558 265.032,158.139 L247.326,133.3 C291.379,133.903 352.33,155.025 352.33,155.025 Z" id="Shape" fill="#484141"></path>
            <path d="M228.015,58.47 C284.741,77.781 283.534,116.403 283.534,116.403 L247.326,133.3 L265.032,158.139 C251.635,162.062 240.543,172.345 236.029,186.321 L233.844,193.08 C221.835,230.193 202.632,264.386 177.492,293.799 C174.704,275.405 173.135,244.363 181.547,200.889 C196.03,126.059 132.268,79.072 132.268,79.072 C159.605,57.83 193.593,46.75 228.015,58.47 Z" id="Shape" fill="#353333"></path>
            <circle id="Oval" fill="#8C8A8A" cx="240.688" cy="108.558" r="10.259"></circle>
            <path d="M64.25,303.334 L64.25,303.344 C25.1,272.184 0,224.104 0,170.174 C0,164.264 0.3,158.424 0.89,152.674 C11.11,148.854 21.64,145.524 31.7,142.674 C50.18,137.444 67.71,129.534 83.78,119.274 C83.78,119.274 104.33,214.234 64.25,303.334 Z" id="Shape" fill="#353333"></path>
        </g>
    </g>
</svg>